<svg xmlns="http://www.w3.org/2000/svg" viewBox="0 0 128 128">
  <defs>
    <linearGradient id="g1" x1="0%" y1="0%" x2="100%" y2="100%">
      <stop offset="0%" style="stop-color:#10b981"/>
      <stop offset="100%" style="stop-color:#6366f1"/>
    </linearGradient>
  </defs>
  <rect width="128" height="128" rx="24" fill="#0f172a"/>
  <path d="M64 16C38 16 16 38 16 64s22 48 48 48 48-22 48-48S90 16 64 16zm0 88c-22 0-40-18-40-40s18-40 40-40 40 18 40 40-18 40-40 40z" fill="url(#g1)" opacity="0.3"/>
  <text x="64" y="52" font-size="36" font-family="Arial,sans-serif" font-weight="bold" fill="#10b981" text-anchor="middle" dominant-baseline="middle">RD</text>
  <path d="M44 68 C44 58 54 52 64 52 C74 52 84 58 84 68" stroke="#6366f1" stroke-width="3" fill="none" stroke-linecap="round"/>
  <circle cx="50" cy="76" r="3" fill="#10b981"/>
  <circle cx="64" cy="80" r="3" fill="#6366f1"/>
  <circle cx="78" cy="76" r="3" fill="#10b981"/>
  <line x1="50" y1="76" x2="64" y2="80" stroke="#334155" stroke-width="1.5"/>
  <line x1="64" y1="80" x2="78" y2="76" stroke="#334155" stroke-width="1.5"/>
  <text x="64" y="100" font-size="11" font-family="Arial,sans-serif" fill="#94a3b8" text-anchor="middle">MediChat</text>
</svg>
